<?xml version="1.0" standalone="no"?>
<!DOCTYPE svg PUBLIC "-//W3C//DTD SVG 20010904//EN"
 "http://www.w3.org/TR/2001/REC-SVG-20010904/DTD/svg10.dtd">
<svg version="1.0" xmlns="http://www.w3.org/2000/svg"
 width="300.000000pt" height="295.000000pt" viewBox="0 0 300.000000 295.000000"
 preserveAspectRatio="xMidYMid meet">
<metadata>
Created by potrace 1.10, written by Peter Selinger 2001-2011
</metadata>
<g transform="translate(0.000000,295.000000) scale(0.100000,-0.100000)"
fill="#000000" stroke="none">
<path d="M1275 2864 c-297 -50 -563 -187 -770 -399 -195 -199 -315 -428 -376
-715 -31 -148 -31 -380 0 -530 63 -296 178 -510 390 -720 206 -205 418 -320
704 -382 146 -31 408 -31 554 0 295 64 527 193 733 409 196 204 307 423 367
721 26 129 23 374 -6 509 -124 585 -570 1013 -1156 1108 -110 18 -331 18 -440
-1z m494 -54 c252 -51 478 -170 665 -350 270 -259 416 -601 416 -970 -1 -372
-133 -693 -395 -956 -202 -203 -453 -332 -734 -379 -150 -25 -397 -17 -537 19
-467 117 -826 451 -974 906 -46 140 -64 285 -57 460 9 207 46 357 132 535 205
421 616 707 1090 759 84 9 296 -4 394 -24z"/>
<path d="M1385 2733 c0 -45 -3 -58 -15 -58 -10 0 -17 16 -23 53 -8 46 -11 52
-33 52 -23 0 -24 -3 -18 -42 10 -78 14 -89 39 -98 29 -11 80 -3 95 15 6 7 10
40 8 72 -3 54 -5 58 -28 61 -25 3 -26 1 -25 -55z"/>
<path d="M1470 2770 c0 -15 7 -20 25 -20 25 0 25 -1 19 -55 -7 -54 -6 -55 20
-55 25 0 26 2 26 55 0 52 1 55 25 55 18 0 25 5 25 20 0 18 -7 20 -70 20 -63 0
-70 -2 -70 -20z"/>
<path d="M1639 2717 c-13 -80 -12 -81 59 -91 31 -4 48 -2 53 6 12 19 0 28 -37
28 -25 0 -34 4 -34 16 0 13 7 15 34 10 22 -4 37 -2 42 5 8 14 -14 29 -43 29
-13 0 -23 5 -23 11 0 8 13 9 40 5 34 -5 40 -4 40 12 0 14 -12 20 -59 28 l-60
10 -12 -69z"/>
<path d="M1163 2749 c-38 -11 -38 -11 -16 -89 14 -52 19 -60 40 -60 22 0 24 3
18 30 -6 26 -3 30 19 36 17 4 28 15 33 32 12 50 -26 71 -94 51z m55 -41 c-7
-19 -38 -22 -38 -4 0 10 9 16 21 16 12 0 19 -5 17 -12z"/>
<path d="M1794 2681 l-21 -69 20 -6 c26 -7 37 0 37 25 0 32 19 21 25 -15 5
-26 13 -35 31 -39 19 -3 24 0 24 15 0 11 -5 28 -10 39 -8 15 -7 19 4 19 27 0
38 36 18 58 -16 18 -70 42 -96 42 -6 0 -20 -31 -32 -69z"/>
<path d="M1042 2710 c-22 -9 -23 -23 -6 -77 7 -24 -12 -13 -30 18 -15 26 -22
30 -45 24 -14 -4 -28 -8 -30 -10 -4 -5 39 -116 50 -129 4 -5 15 -6 24 -3 14 6
13 11 -5 48 -28 54 -20 59 15 9 16 -22 33 -39 39 -37 7 3 10 26 9 58 -2 55 3
53 27 -13 6 -19 14 -26 25 -22 20 8 19 10 -9 79 -26 65 -30 68 -64 55z"/>
<path d="M2039 2621 c-17 -17 -29 -40 -29 -55 0 -50 66 -89 110 -66 21 11 21
12 4 31 -13 14 -20 16 -31 8 -10 -9 -17 -8 -28 1 -24 20 12 75 42 63 7 -3 13
-11 13 -18 0 -11 20 -25 36 -25 2 0 4 11 4 25 0 18 -10 31 -32 45 -44 26 -54
25 -89 -9z"/>
<path d="M840 2613 c-60 -22 -77 -86 -35 -128 38 -39 97 -27 125 25 15 28 -12
87 -45 100 -15 6 -27 10 -28 9 -1 0 -9 -3 -17 -6z m48 -87 c-4 -31 -34 -31
-54 0 -17 25 -17 27 1 40 16 12 21 11 37 -3 10 -9 18 -26 16 -37z"/>
<path d="M1306 2585 c-502 -95 -864 -490 -916 -1000 -33 -323 95 -663 336
-895 193 -186 397 -280 671 -311 304 -34 632 78 862 296 232 219 353 502 352
820 -1 201 -52 393 -147 551 -161 268 -394 443 -693 521 -123 32 -344 40 -465
18z m299 -35 c136 -16 239 -45 360 -104 134 -66 216 -127 320 -239 94 -100
165 -213 211 -337 56 -146 68 -216 67 -390 0 -135 -3 -168 -27 -255 -87 -329
-332 -608 -639 -729 -150 -59 -208 -70 -397 -70 -148 0 -187 4 -253 22 -201
55 -368 150 -503 286 -406 408 -419 1060 -30 1473 125 133 228 205 380 268 96
39 195 65 291 75 103 11 121 11 220 0z"/>
<path d="M1437 2437 c7 -77 -12 -125 -81 -209 -28 -35 -41 -58 -33 -58 43 0
130 117 149 201 7 28 17 49 24 49 8 0 35 -21 62 -47 92 -90 132 -166 132 -252
0 -45 4 -59 20 -69 16 -10 24 -10 40 0 17 11 22 10 30 -2 13 -21 12 -44 -8
-121 -28 -105 -60 -129 -81 -60 -11 38 -70 101 -94 101 -7 0 2 -8 18 -19 69
-41 91 -131 47 -190 -30 -42 -11 -39 32 4 110 110 153 243 107 334 -22 42 -60
81 -48 48 8 -21 -17 -87 -33 -87 -8 0 -9 8 -3 23 38 104 -56 267 -219 378 -31
22 -59 39 -61 39 -3 0 -2 -28 0 -63z"/>
<path d="M1268 2253 c2 -25 -4 -47 -15 -64 -109 -157 -121 -186 -109 -255 4
-20 23 -53 44 -76 42 -46 56 -35 18 15 -41 54 -44 105 -8 179 30 62 91 138
111 138 19 0 12 59 -9 80 -29 29 -36 25 -32 -17z"/>
<path d="M1567 2272 c34 -30 63 -84 63 -117 0 -33 -11 -53 -83 -146 -51 -66
-58 -102 -24 -123 25 -16 52 4 54 40 2 28 2 28 -5 4 -9 -29 -46 -39 -56 -15
-8 21 17 67 63 119 21 22 43 51 50 63 27 53 3 137 -50 172 -25 17 -28 17 -12
3z"/>
<path d="M1524 2242 c14 -24 -19 -84 -84 -153 -39 -41 -76 -83 -82 -94 -14
-26 153 151 169 179 15 26 17 76 2 76 -5 0 -8 -4 -5 -8z"/>
<path d="M1258 2105 c-72 -110 -58 -205 46 -311 63 -65 110 -90 63 -34 -34 39
-51 94 -43 139 4 25 2 31 -4 21 -5 -8 -10 -33 -10 -55 l-1 -40 -29 32 c-29 33
-50 87 -50 134 0 15 15 57 34 95 19 38 34 70 32 71 -1 1 -18 -22 -38 -52z"/>
<path d="M1850 1952 c0 -6 -11 -23 -23 -39 -13 -15 -27 -40 -31 -56 -3 -15
-23 -46 -43 -68 -20 -22 -33 -42 -30 -46 11 -11 74 40 101 80 25 39 45 122 32
134 -3 4 -6 1 -6 -5z"/>
<path d="M1130 1863 c0 -26 96 -123 122 -123 14 0 9 28 -7 34 -8 3 -15 12 -15
21 0 8 -7 15 -15 15 -8 0 -30 14 -50 31 -19 17 -35 27 -35 22z"/>
<path d="M1180 1689 l0 -39 305 0 305 0 0 39 0 39 -45 -1 c-25 -1 -45 -5 -45
-9 0 -5 5 -8 10 -8 6 0 10 -7 10 -15 0 -12 -34 -14 -225 -14 -205 0 -268 7
-221 25 31 12 15 20 -39 21 l-55 1 0 -39z"/>
<path d="M1260 1591 c0 -16 5 -31 10 -33 6 -2 25 -88 42 -191 31 -183 32 -187
56 -187 23 0 24 2 18 48 -3 26 -11 97 -16 157 -6 61 -13 125 -16 143 -4 29 -2
32 19 32 22 0 25 -5 30 -67 4 -38 7 -126 7 -196 l0 -128 24 18 c21 16 22 20
10 38 -19 27 -18 48 6 78 17 22 20 40 20 141 l0 116 70 0 c39 0 70 -4 70 -8 0
-4 -7 -88 -15 -187 -9 -107 -12 -182 -6 -188 11 -11 51 9 51 26 2 59 50 352
59 355 6 2 11 17 11 33 l0 29 -225 0 -225 0 0 -29z"/>
<path d="M1207 1302 c-36 -39 -7 -102 45 -102 24 0 58 35 58 60 0 27 -35 60
-63 60 -13 0 -31 -8 -40 -18z m56 -58 c-3 -8 -9 -14 -13 -14 -14 0 -22 20 -16
37 5 12 9 13 21 3 7 -6 11 -18 8 -26z"/>
<path d="M1461 1293 c-23 -28 -20 -59 7 -80 21 -17 43 -16 70 3 44 30 16 104
-39 104 -10 0 -27 -12 -38 -27z m54 -38 c0 -11 -7 -21 -16 -23 -18 -3 -33 23
-23 39 10 17 39 5 39 -16z"/>
<path d="M1710 1300 c-11 -11 -20 -29 -20 -40 0 -27 35 -60 63 -60 50 0 76 70
39 103 -25 23 -58 21 -82 -3z m60 -51 c0 -24 -23 -21 -28 4 -2 10 3 17 12 17
10 0 16 -9 16 -21z"/>
<path d="M1085 1195 c-14 -13 -25 -31 -25 -40 0 -23 37 -55 63 -55 53 0 77 75
35 104 -31 22 -45 20 -73 -9z m60 -45 c0 -8 -8 -16 -17 -18 -13 -2 -18 3 -18
18 0 15 5 20 18 18 9 -2 17 -10 17 -18z"/>
<path d="M1850 1200 c-39 -39 -14 -100 43 -100 27 0 57 32 57 60 0 21 -41 60
-63 60 -9 0 -26 -9 -37 -20z m53 -36 c9 -10 -4 -34 -18 -34 -17 0 -28 17 -20
30 7 11 28 13 38 4z"/>
<path d="M1190 1157 c0 -18 -5 -38 -11 -44 -7 -7 -2 -15 15 -27 15 -9 26 -24
26 -33 0 -13 8 -15 45 -10 26 2 48 7 50 9 3 2 -1 18 -7 35 -10 26 -9 35 5 56
22 35 5 47 -65 47 l-58 0 0 -33z m88 -34 c3 -40 1 -43 -21 -43 -38 0 -52 23
-37 60 9 23 18 30 34 28 17 -2 22 -11 24 -45z"/>
<path d="M1435 1177 c-12 -10 -14 -16 -7 -21 7 -4 12 -22 12 -41 0 -19 -5 -37
-12 -41 -22 -14 25 -34 78 -34 82 0 85 3 78 69 -4 31 -11 62 -17 69 -13 16
-108 16 -132 -1z m106 -28 c11 -11 19 -30 17 -42 -2 -18 -11 -23 -45 -25 -41
-3 -42 -2 -49 34 -5 26 -3 39 7 45 23 14 48 10 70 -12z"/>
<path d="M1690 1183 c0 -4 7 -17 15 -27 20 -26 19 -60 -2 -77 -15 -12 -16 -12
-9 6 13 31 9 57 -13 78 -17 18 -23 19 -50 7 -35 -14 -48 -48 -32 -79 12 -22
53 -37 70 -27 6 4 24 0 40 -9 42 -21 78 -19 86 5 3 11 15 25 26 31 14 7 17 14
11 22 -6 7 -12 26 -14 42 -3 29 -4 30 -65 33 -35 2 -63 -1 -63 -5z m103 -47
c8 -24 6 -32 -9 -43 -33 -24 -44 -16 -44 33 0 41 2 45 22 42 13 -2 25 -14 31
-32z m-124 -5 c19 -12 6 -41 -18 -41 -23 0 -35 15 -27 35 6 17 24 19 45 6z"/>
<path d="M1336 1154 c-19 -18 -21 -65 -4 -82 17 -17 64 -15 82 4 21 21 20 57
-2 77 -23 21 -56 22 -76 1z m62 -40 c4 -27 -18 -36 -42 -18 -16 11 -17 16 -6
29 18 21 44 15 48 -11z"/>
<path d="M1051 1071 c-15 -15 -20 -34 -20 -75 l0 -56 93 0 93 0 -5 58 c-5 72
-25 92 -93 92 -35 0 -54 -5 -68 -19z m103 -11 c21 -8 26 -16 26 -45 0 -31 -3
-35 -27 -37 -16 -1 -37 -2 -48 -3 -11 -1 -25 2 -31 7 -16 12 -5 56 19 73 25
18 28 18 61 5z"/>
<path d="M1820 1070 c-15 -15 -20 -33 -20 -75 l0 -55 90 0 90 0 0 53 c0 77
-18 97 -86 97 -41 0 -59 -5 -74 -20z m90 -10 c17 -9 45 -69 36 -77 -8 -9 -73
-10 -94 -2 -31 12 -31 66 1 79 29 12 35 12 57 0z"/>
<path d="M1306 1027 c-21 -21 -26 -36 -26 -77 l0 -50 90 0 90 0 0 59 c0 70
-11 82 -80 89 -42 4 -52 1 -74 -21z m98 -12 c26 -19 31 -75 8 -76 -26 -2 -55
-2 -74 -1 -27 3 -24 57 4 76 27 19 37 20 62 1z"/>
<path d="M1577 1032 c-12 -13 -17 -37 -17 -75 l0 -57 90 0 90 0 0 55 c0 74
-20 95 -93 95 -40 0 -58 -5 -70 -18z m97 -8 c26 -10 38 -41 26 -64 -14 -26
-94 -29 -104 -4 -9 25 -7 33 14 54 21 21 37 24 64 14z"/>
<path d="M983 999 c-6 -6 -9 -17 -6 -25 3 -8 -6 -14 -29 -16 l-33 -3 1 -60 c1
-33 7 -73 13 -88 6 -16 11 -33 11 -38 0 -5 104 -9 255 -9 218 0 256 -2 261
-15 4 -10 20 -15 50 -15 32 0 44 4 44 15 0 13 36 15 265 15 l265 0 0 28 c0 15
5 33 11 39 5 5 9 37 7 69 -3 56 -5 59 -30 62 -19 2 -28 10 -30 25 -2 13 -11
23 -24 25 -19 3 -20 -1 -16 -60 l4 -63 -118 -24 c-182 -35 -189 -34 -59 5 66
19 124 40 129 45 16 15 -3 23 -27 11 -19 -10 -387 -122 -400 -122 -10 0 2 105
12 108 25 8 8 19 -29 19 -22 0 -40 -4 -40 -8 0 -5 5 -9 10 -9 6 0 10 -25 10
-55 0 -30 -2 -55 -5 -55 -3 0 -86 25 -186 55 -99 30 -187 55 -195 55 -8 0 -14
5 -14 10 0 6 -9 10 -21 10 -12 0 -19 -5 -17 -12 3 -7 59 -28 126 -47 67 -19
121 -36 119 -37 -1 -2 -67 9 -146 24 l-143 27 4 62 c4 63 -4 77 -29 52z m-3
-93 c0 -39 -9 -36 224 -75 65 -11 121 -23 125 -27 3 -4 -8 -4 -24 -1 -17 3
-103 11 -193 18 l-162 13 0 53 c0 40 4 53 15 53 10 0 15 -10 15 -34z m1080
-19 l0 -53 -162 -13 c-90 -7 -176 -15 -193 -18 -16 -3 -27 -3 -24 0 3 4 75 18
160 32 189 32 199 35 199 75 0 16 5 30 10 30 6 0 10 -24 10 -53z m-880 -87
c102 -7 187 -14 189 -16 2 -2 -86 -4 -197 -4 -111 0 -202 2 -202 4 0 2 -3 12
-7 21 -5 14 -2 16 13 12 10 -3 102 -11 204 -17z m870 0 c0 -19 -6 -20 -202
-19 -216 2 -205 6 82 27 63 5 116 10 118 11 1 0 2 -8 2 -19z"/>
<path d="M1250 620 c0 -5 7 -10 15 -10 13 0 15 -7 9 -35 -6 -32 -4 -35 17 -35
22 0 24 4 24 45 0 44 -1 45 -32 45 -18 0 -33 -4 -33 -10z"/>
<path d="M1359 614 c-11 -14 -10 -18 6 -30 18 -13 18 -14 1 -14 -16 0 -16 -2
-6 -15 9 -11 26 -15 53 -13 34 3 42 7 50 31 6 19 5 32 -3 42 -17 20 -84 19
-101 -1z"/>
<path d="M1507 593 c-8 -48 0 -55 54 -51 l44 3 0 40 0 40 -46 3 -46 3 -6 -38z"/>
<path d="M1650 620 c0 -5 14 -10 30 -10 30 0 30 0 10 -20 -11 -11 -20 -27 -20
-35 0 -8 9 -15 20 -15 11 0 20 6 20 14 0 7 9 25 20 39 11 14 20 28 20 31 0 3
-22 6 -50 6 -27 0 -50 -4 -50 -10z"/>
<path d="M2185 2533 c-26 -25 -36 -62 -25 -83 14 -27 50 -50 78 -50 33 0 72
43 72 79 0 56 -86 94 -125 54z m82 -39 c3 -9 -3 -24 -15 -36 -23 -24 -52 -18
-52 10 0 38 54 59 67 26z"/>
<path d="M662 2487 c-12 -13 -22 -33 -22 -44 0 -31 47 -83 75 -83 36 0 75 37
75 71 0 16 -3 29 -7 29 -16 0 -31 -16 -34 -35 -6 -29 -35 -30 -54 -1 -18 28
-13 46 14 46 18 0 41 18 41 32 0 19 -67 7 -88 -15z"/>
<path d="M2322 2407 l-52 -53 39 -38 c33 -33 43 -37 55 -27 13 11 12 16 -12
36 l-27 24 40 40 c35 37 37 43 24 56 -13 13 -21 9 -67 -38z"/>
<path d="M2422 2302 l-54 -47 32 -40 c17 -22 33 -42 36 -44 2 -2 11 2 19 9 14
12 13 16 -7 38 l-23 24 43 37 c41 35 42 38 25 53 -17 15 -22 13 -71 -30z"/>
<path d="M491 2314 c-25 -32 -27 -57 -5 -75 14 -11 22 -10 54 9 24 13 41 18
45 12 9 -14 -3 -30 -24 -30 -18 0 -41 -18 -41 -32 0 -4 13 -8 28 -8 53 0 94
74 60 108 -17 17 -39 15 -68 -8 -28 -22 -40 -25 -40 -11 0 6 12 16 27 23 36
18 41 38 10 38 -16 0 -34 -10 -46 -26z"/>
<path d="M391 2174 c-25 -43 -30 -59 -21 -67 9 -9 14 -8 24 6 17 22 19 22 66
-9 22 -15 42 -25 43 -23 1 2 8 11 15 20 11 15 6 20 -33 43 -48 29 -52 35 -33
54 10 10 10 15 -2 22 -23 14 -23 14 -59 -46z"/>
<path d="M2513 2188 l-61 -39 30 -50 c29 -46 46 -58 61 -43 4 4 -2 19 -13 34
-11 16 -20 33 -20 39 0 21 20 11 38 -18 13 -21 22 -27 32 -21 11 7 11 13 -3
34 -19 28 -22 46 -8 46 5 0 14 -13 21 -30 12 -28 33 -39 44 -22 2 4 -10 30
-27 58 l-32 51 -62 -39z"/>
<path d="M321 2044 c-29 -37 -27 -78 5 -103 47 -37 102 -24 124 29 11 25 10
34 -5 56 -16 24 -17 25 -30 7 -10 -13 -10 -22 -3 -31 8 -10 7 -17 -5 -29 -14
-15 -18 -15 -41 1 -28 18 -35 46 -12 46 13 0 26 20 26 41 0 19 -40 8 -59 -17z"/>
<path d="M2594 2056 c-52 -23 -60 -78 -16 -127 25 -28 30 -30 55 -18 31 14 32
18 15 54 -12 27 -34 29 -32 1 2 -22 -13 -20 -26 4 -9 16 -6 22 16 36 30 20 59
9 59 -22 0 -41 29 -59 40 -25 9 30 -20 90 -50 101 -15 6 -27 10 -28 10 -1 -1
-16 -7 -33 -14z"/>
<path d="M2670 1887 c-36 -11 -66 -21 -68 -22 -2 -2 3 -27 11 -56 9 -36 19
-55 30 -57 19 -4 22 14 8 51 -7 19 -6 27 4 31 14 5 25 -14 25 -46 0 -13 5 -18
18 -16 18 4 18 6 7 51 -5 17 -3 27 4 27 6 0 14 -15 19 -32 5 -19 16 -34 26
-36 15 -3 17 1 11 29 -4 18 -13 47 -19 64 l-11 31 -65 -19z"/>
<path d="M283 1883 c-18 -2 -33 -8 -33 -13 0 -5 -2 -15 -5 -22 -8 -21 115
-115 126 -96 12 18 11 36 -2 40 -16 5 -1 48 17 48 8 0 14 4 14 9 0 5 3 16 6
25 5 13 -2 16 -42 14 -27 0 -64 -3 -81 -5z m57 -42 c0 -19 -22 -23 -38 -7 -15
15 -14 16 11 16 15 0 27 -4 27 -9z"/>
<path d="M233 1398 c-28 -36 -18 -105 20 -136 14 -12 18 -9 32 18 20 38 13 79
-19 109 -18 17 -25 19 -33 9z"/>
<path d="M2742 1403 c-17 -6 -42 -57 -42 -85 1 -13 6 -33 13 -46 13 -22 13
-22 34 -3 28 26 36 55 29 97 -7 36 -14 44 -34 37z"/>
<path d="M327 1278 c-27 -27 -31 -41 -27 -88 4 -49 15 -56 43 -28 34 34 42 67
25 109 l-14 34 -27 -27z"/>
<path d="M2631 1277 c-17 -45 -13 -73 16 -107 25 -30 27 -31 40 -14 23 31 16
80 -16 116 l-30 33 -10 -28z"/>
<path d="M180 1240 c0 -34 32 -82 64 -95 45 -19 46 -19 46 5 0 34 -29 80 -56
90 -33 13 -54 13 -54 0z"/>
<path d="M2763 1240 c-25 -10 -48 -43 -57 -82 -7 -32 0 -34 48 -14 38 16 46
25 56 72 9 37 -2 42 -47 24z"/>
<path d="M361 1151 c-24 -33 -27 -68 -9 -106 14 -31 27 -28 52 14 16 28 17 38
7 71 -15 52 -25 56 -50 21z"/>
<path d="M2591 1151 c-18 -34 -13 -78 14 -108 21 -24 26 -26 35 -13 22 33 23
81 3 108 -25 34 -39 38 -52 13z"/>
<path d="M225 1089 c13 -42 35 -69 63 -75 15 -3 33 -7 40 -10 21 -6 14 43 -10
71 -14 16 -38 28 -62 32 -37 6 -38 5 -31 -18z"/>
<path d="M2692 1085 c-27 -23 -50 -71 -38 -82 2 -2 22 1 45 7 41 11 71 47 71
85 0 24 -45 18 -78 -10z"/>
<path d="M407 1031 c-9 -16 -17 -37 -17 -46 0 -21 30 -85 39 -85 12 0 41 57
41 80 0 22 -29 80 -40 80 -3 0 -13 -13 -23 -29z"/>
<path d="M2547 1037 c-22 -34 -22 -89 2 -118 l18 -23 16 25 c26 40 26 86 -1
119 l-18 22 -17 -25z"/>
<path d="M280 972 c0 -11 12 -34 26 -51 21 -25 33 -31 65 -31 l39 0 -20 39
c-23 46 -24 47 -73 56 -33 6 -37 5 -37 -13z"/>
<path d="M2660 981 c-23 -6 -70 -62 -70 -82 0 -12 57 -11 81 1 19 10 49 59 49
80 0 11 -22 12 -60 1z"/>
<path d="M472 925 c-18 -40 -14 -77 11 -109 l23 -29 18 37 c18 38 15 62 -12
104 -18 28 -26 28 -40 -3z"/>
<path d="M2479 918 c-22 -36 -20 -91 4 -116 12 -12 17 -9 36 21 11 19 21 42
21 51 0 18 -27 76 -35 76 -3 0 -14 -15 -26 -32z"/>
<path d="M353 862 c-18 -12 20 -70 54 -83 30 -11 73 -5 73 11 0 5 -12 23 -27
40 -29 31 -78 47 -100 32z"/>
<path d="M2575 856 c-32 -14 -62 -57 -51 -75 18 -28 93 1 116 44 12 23 12 28
0 35 -19 13 -29 12 -65 -4z"/>
<path d="M541 821 c-17 -31 -13 -70 10 -102 27 -38 36 -37 50 10 10 34 9 44
-7 72 -24 40 -39 46 -53 20z"/>
<path d="M2411 814 c-24 -30 -27 -81 -8 -108 13 -17 15 -16 40 14 30 35 33 56
15 95 -14 32 -21 31 -47 -1z"/>
<path d="M420 739 c0 -42 61 -82 109 -73 38 8 38 14 2 53 -23 25 -37 31 -70
31 -23 0 -41 -5 -41 -11z"/>
<path d="M616 728 c-11 -44 -6 -77 18 -105 29 -33 41 -26 51 28 5 30 2 41 -20
67 -32 38 -41 40 -49 10z"/>
<path d="M2336 721 c-25 -26 -28 -36 -23 -71 3 -23 8 -45 12 -48 11 -11 65 56
65 81 -1 12 -6 32 -13 45 l-13 22 -28 -29z"/>
<path d="M2466 719 c-33 -38 -32 -45 1 -53 36 -10 81 11 98 44 17 34 12 40
-36 40 -29 0 -43 -6 -63 -31z"/>
<path d="M696 638 c-12 -47 -6 -74 24 -103 16 -16 32 -26 36 -23 3 4 8 24 11
45 4 32 0 45 -22 71 -32 38 -41 40 -49 10z"/>
<path d="M500 637 c0 -7 13 -26 29 -41 23 -22 36 -27 66 -24 48 4 53 17 21 51
-20 22 -34 27 -71 27 -30 0 -45 -4 -45 -13z"/>
<path d="M2255 626 c-30 -30 -39 -64 -26 -99 9 -24 14 -26 31 -17 30 16 52 66
45 101 -9 40 -21 44 -50 15z"/>
<path d="M2379 620 c-37 -36 -31 -50 22 -50 32 0 47 7 70 30 37 36 31 50 -22
50 -32 0 -47 -7 -70 -30z"/>
<path d="M603 553 c-30 -6 -29 -14 5 -45 33 -31 62 -41 96 -32 33 8 33 19 -3
55 -28 28 -46 32 -98 22z"/>
<path d="M2291 521 c-36 -34 -35 -46 6 -54 36 -7 88 15 103 43 14 27 11 30
-37 37 -33 4 -43 1 -72 -26z"/>
<path d="M843 465 c-3 -9 3 -25 12 -35 13 -14 14 -20 5 -20 -7 0 -19 8 -26 18
-11 14 -13 15 -14 2 0 -21 20 -40 42 -40 25 0 34 26 17 48 -13 15 -12 16 4 3
9 -8 21 -11 25 -7 7 8 -34 46 -49 46 -5 0 -12 -7 -16 -15z"/>
<path d="M2105 460 c-11 -17 6 -92 18 -87 7 3 11 10 10 16 -2 6 3 12 10 12 6
1 18 2 24 3 19 2 12 18 -18 44 -30 25 -35 26 -44 12z"/>
<path d="M2056 432 c-3 -5 -3 -18 0 -26 6 -15 3 -15 -20 -5 -14 7 -29 10 -31
7 -7 -7 26 -78 36 -78 13 0 20 18 9 25 -5 3 -10 11 -10 16 0 5 11 2 24 -6 33
-22 41 -4 18 41 -11 21 -22 32 -26 26z"/>
<path d="M906 401 c-17 -18 -24 -31 -17 -35 6 -4 15 -5 19 -2 5 3 17 -5 28
-17 l19 -22 6 45 c10 70 -8 80 -55 31z"/>
<path d="M981 364 c-14 -40 -6 -58 14 -31 13 18 14 17 17 -4 5 -34 26 -34 40
0 10 23 17 28 27 22 12 -8 13 -14 3 -37 -14 -30 -10 -39 13 -31 8 4 15 16 15
27 0 13 7 20 20 20 35 0 21 18 -27 34 -58 20 -63 20 -63 0 0 -8 -4 -12 -10 -9
-5 3 -10 15 -10 26 0 32 -25 21 -39 -17z"/>
<path d="M1973 392 c-8 -5 -9 -13 -3 -22 12 -19 13 -50 2 -50 -5 0 -15 13 -23
30 -9 19 -18 27 -26 22 -9 -6 -8 -16 7 -40 21 -35 36 -39 65 -18 17 12 17 16
4 49 -9 23 -19 33 -26 29z"/>
<path d="M1858 349 c-22 -12 -23 -52 -2 -69 22 -19 70 -1 66 25 -2 11 -5 21
-7 23 -5 6 -35 -11 -35 -20 0 -5 5 -6 10 -3 6 3 10 1 10 -5 0 -6 -8 -10 -17
-8 -22 4 -24 43 -3 43 19 0 26 19 8 22 -7 2 -21 -2 -30 -8z"/>
<path d="M1146 306 c-32 -43 -33 -50 -1 -42 17 4 31 1 42 -9 8 -9 17 -14 19
-12 8 7 -12 91 -22 94 -6 2 -23 -12 -38 -31z"/>
<path d="M1765 293 c-5 -31 -10 -38 -30 -39 -21 -2 -25 3 -25 27 0 19 -5 29
-15 29 -16 0 -19 -28 -9 -66 5 -19 9 -20 55 -11 27 5 49 14 49 19 0 6 11 7 25
4 31 -8 32 6 4 45 -28 40 -46 37 -54 -8z"/>
<path d="M1267 303 c-4 -3 -7 -19 -7 -35 0 -21 6 -31 23 -37 27 -10 47 -4 47
15 0 10 -7 13 -26 8 -22 -6 -25 -4 -22 12 3 14 11 18 31 16 20 -2 25 1 21 13
-6 15 -54 21 -67 8z"/>
<path d="M1350 276 c0 -13 -3 -31 -6 -40 -4 -11 -1 -16 10 -16 9 0 16 8 17 18
0 14 3 13 16 -5 23 -34 31 -28 30 20 -2 40 -4 42 -34 45 -29 3 -33 0 -33 -22z"/>
<path d="M1430 267 c0 -38 15 -57 46 -57 24 0 34 17 34 62 0 40 -24 32 -28
-10 -4 -43 -22 -41 -22 3 0 24 -5 35 -15 35 -10 0 -15 -10 -15 -33z"/>
<path d="M1520 290 c0 -5 10 -10 22 -10 l21 0 -21 -23 c-33 -34 -28 -47 18
-47 28 0 40 4 40 14 0 9 -7 12 -20 9 -11 -3 -20 -1 -20 4 0 6 9 18 20 28 29
27 25 35 -20 35 -22 0 -40 -4 -40 -10z"/>
<path d="M1619 248 c-1 -2 -3 -16 -5 -31 -2 -24 -1 -27 12 -17 16 14 18 36 4
45 -5 3 -11 5 -11 3z"/>
</g>
</svg>
